{
	"asset":{
		"copyright":"majorkeycoin",
		"generator":"Khronos glTF Blender I/O v4.0.44",
		"version":"2.0"
	},
	"scene":0,
	"scenes":[
		{
			"extras":{
				"sun_pos_properties":{
					"show_surface":0,
					"show_analemmas":0,
					"show_north":0,
					"latitude":0.0,
					"day_of_year":99,
					"sun_object":{},
					"object_collection":{}
				},
				"send2ue":{},
				"extremepbr_scene_prop":{},
				"uuid":"7237c427-b438-4220-a013-c7f58a06c329",
				"assets reported":{},
				"pss_general_prop_grp":{},
				"pss_preset_prop_grp":{}
			},
			"name":"Scene",
			"nodes":[
				1
			]
		}
	],
	"nodes":[
		{
			"extras":{
				"extremepbr_object_prop":{},
				"ant_landscape":{}
			},
			"mesh":0,
			"name":"Shackle"
		},
		{
			"children":[
				0
			],
			"extras":{
				"extremepbr_object_prop":{},
				"ant_landscape":{}
			},
			"mesh":1,
			"name":"Padlock"
		}
	],
	"materials":[
		{
			"doubleSided":true,
			"extras":{
				"extremepbr_material_prop":{}
			},
			"name":"Silver",
			"pbrMetallicRoughness":{
				"baseColorFactor":[
					0.09509971737861633,
					0.09509971737861633,
					0.09509971737861633,
					1
				],
				"metallicFactor":0,
				"roughnessFactor":0.5
			}
		},
		{
			"doubleSided":true,
			"extras":{
				"extremepbr_material_prop":{}
			},
			"name":"Gold",
			"pbrMetallicRoughness":{
				"baseColorFactor":[
					0.16708539426326752,
					0.11046088486909866,
					0,
					1
				],
				"metallicFactor":0,
				"roughnessFactor":0.5
			}
		}
	],
	"meshes":[
		{
			"name":"Shackle",
			"primitives":[
				{
					"attributes":{
						"POSITION":0,
						"NORMAL":1,
						"TEXCOORD_0":2
					},
					"indices":3,
					"material":0
				}
			]
		},
		{
			"name":"Padlock",
			"primitives":[
				{
					"attributes":{
						"POSITION":4,
						"NORMAL":5,
						"TEXCOORD_0":6
					},
					"indices":7,
					"material":1
				}
			]
		}
	],
	"accessors":[
		{
			"bufferView":0,
			"componentType":5126,
			"count":481,
			"max":[
				0.17692093551158905,
				0.3784119784832001,
				0.03529424965381622
			],
			"min":[
				-0.1760215163230896,
				-0.0005365807446651161,
				-0.035294290632009506
			],
			"type":"VEC3"
		},
		{
			"bufferView":1,
			"componentType":5126,
			"count":481,
			"type":"VEC3"
		},
		{
			"bufferView":2,
			"componentType":5126,
			"count":481,
			"type":"VEC2"
		},
		{
			"bufferView":3,
			"componentType":5123,
			"count":2592,
			"type":"SCALAR"
		},
		{
			"bufferView":4,
			"componentType":5126,
			"count":160,
			"max":[
				0.19999998807907104,
				0.15000000596046448,
				0.08000002056360245
			],
			"min":[
				-0.19999998807907104,
				-0.15000000596046448,
				-0.08000002056360245
			],
			"type":"VEC3"
		},
		{
			"bufferView":5,
			"componentType":5126,
			"count":160,
			"type":"VEC3"
		},
		{
			"bufferView":6,
			"componentType":5126,
			"count":160,
			"type":"VEC2"
		},
		{
			"bufferView":7,
			"componentType":5123,
			"count":276,
			"type":"SCALAR"
		}
	],
	"bufferViews":[
		{
			"buffer":0,
			"byteLength":5772,
			"byteOffset":0,
			"target":34962
		},
		{
			"buffer":0,
			"byteLength":5772,
			"byteOffset":5772,
			"target":34962
		},
		{
			"buffer":0,
			"byteLength":3848,
			"byteOffset":11544,
			"target":34962
		},
		{
			"buffer":0,
			"byteLength":5184,
			"byteOffset":15392,
			"target":34963
		},
		{
			"buffer":0,
			"byteLength":1920,
			"byteOffset":20576,
			"target":34962
		},
		{
			"buffer":0,
			"byteLength":1920,
			"byteOffset":22496,
			"target":34962
		},
		{
			"buffer":0,
			"byteLength":1280,
			"byteOffset":24416,
			"target":34962
		},
		{
			"buffer":0,
			"byteLength":552,
			"byteOffset":25696,
			"target":34963
		}
	],
	"buffers":[
		{
			"byteLength":26248,
			"uri":"Padlock.bin"
		}
	]
}
